<?xml version="1.0" encoding="iso-8859-1"?>
<!-- Generator: Adobe Illustrator 19.0.0, SVG Export Plug-In . SVG Version: 6.00 Build 0)  -->
<svg version="1.1" fill="#f7861b" id="Capa_1" xmlns="http://www.w3.org/2000/svg" xmlns:xlink="http://www.w3.org/1999/xlink" x="0px" y="0px"
	 viewBox="0 0 60 60" style="enable-background:new 0 0 60 60;" xml:space="preserve">
<g>
	<path d="M59,9h-4V2c0-0.552-0.447-1-1-1h-8c-0.553,0-1,0.448-1,1v7H15V2c0-0.552-0.448-1-1-1H6C5.448,1,5,1.448,5,2v7H1
		c-0.552,0-1,0.448-1,1v10c0,0.552,0.448,1,1,1h2v37c0,0.553,0.448,1,1,1h52c0.553,0,1-0.447,1-1V21h2c0.553,0,1-0.448,1-1V10
		C60,9.448,59.553,9,59,9z M6,11c0.552,0,1-0.448,1-1V3h6v6H9v2h5h32h5V9h-4V3h6v7c0,0.552,0.447,1,1,1h4v3H2v-3H6z M5,57v-4h50v4H5
		z M55,27H45v2h10v22H5V29h36v-2H5v-6h50V27z M56,19H4H2v-3h56v3H56z"/>
	<polygon points="14,36 12,36 12,39 9,39 9,41 12,41 12,44 14,44 14,41 17,41 17,39 14,39 	"/>
	<rect x="43" y="39" width="8" height="2"/>
	<path d="M33,39h-5.586l5.293-5.293l-1.414-1.414l-7,7c-0.286,0.286-0.372,0.716-0.217,1.09S24.596,41,25,41h5.586l-5.293,5.293
		l1.414,1.414l7-7c0.286-0.286,0.372-0.716,0.217-1.09C33.77,39.243,33.404,39,33,39z"/>
	<rect x="7" y="23" width="2" height="2"/>
	<rect x="11" y="23" width="2" height="2"/>
	<rect x="15" y="23" width="2" height="2"/>
	<rect x="19" y="23" width="2" height="2"/>
	<rect x="23" y="23" width="2" height="2"/>
	<rect x="27" y="23" width="2" height="2"/>
	<rect x="31" y="23" width="2" height="2"/>
	<rect x="35" y="23" width="2" height="2"/>
	<rect x="39" y="23" width="2" height="2"/>
	<rect x="43" y="23" width="2" height="2"/>
	<rect x="47" y="23" width="2" height="2"/>
	<rect x="51" y="23" width="2" height="2"/>
</g>
<g>
</g>
<g>
</g>
<g>
</g>
<g>
</g>
<g>
</g>
<g>
</g>
<g>
</g>
<g>
</g>
<g>
</g>
<g>
</g>
<g>
</g>
<g>
</g>
<g>
</g>
<g>
</g>
<g>
</g>
</svg>
