<?xml version="1.0" encoding="UTF-8"?> <svg xmlns="http://www.w3.org/2000/svg" width="67" height="70" viewBox="0 0 67 70"><defs><style> .cls-1 { fill: #f7861b; fill-rule: evenodd; } </style></defs><path id="Power_Energy" data-name="Power Energy" class="cls-1" d="M1383.25,2661.79v-5.28a7.163,7.163,0,0,0,6.95-7.16v-4.43a2.247,2.247,0,0,0,2.23-2.24v-5.32a2.243,2.243,0,0,0-2.24-2.24h-2.12v-8.75a1.365,1.365,0,1,0-2.73,0v8.75h-6.9v-8.75a1.365,1.365,0,1,0-2.73,0v8.75h-2.12a2.243,2.243,0,0,0-2.24,2.24v5.32a2.247,2.247,0,0,0,2.23,2.24v4.43a7.163,7.163,0,0,0,6.95,7.16v5.28a12.145,12.145,0,0,0,0,24.13V2687a5.273,5.273,0,0,1-5.25,5.27h-24.37a5.264,5.264,0,0,1-5.24-5.27v-3.87h12.2a3.749,3.749,0,0,0,3.74-3.75v-16.14a1.365,1.365,0,1,0-2.73,0v16.14a1.029,1.029,0,0,1-1.01,1.02h-27.13a1.029,1.029,0,0,1-1.01-1.02v-44.57a1.02,1.02,0,0,1,1.01-1.01h27.13a1.02,1.02,0,0,1,1.01,1.01v16.15a1.365,1.365,0,1,0,2.73,0v-16.15a3.749,3.749,0,0,0-3.74-3.75h-2.58v-1.66a4.4,4.4,0,0,0-4.39-4.4h-13.2a4.389,4.389,0,0,0-4.38,4.4v1.66h-2.58a3.749,3.749,0,0,0-3.74,3.75v44.57a3.749,3.749,0,0,0,3.74,3.75h12.2V2687a8,8,0,0,0,7.97,8h24.37a7.991,7.991,0,0,0,7.97-8v-1.08A12.145,12.145,0,0,0,1383.25,2661.79Zm-47.2-32.39a1.662,1.662,0,0,1,1.65-1.67h13.2a1.664,1.664,0,0,1,1.66,1.67v1.66h-16.51v-1.66Zm38.03,12.79v-4.34h15.62v4.34h-15.62Zm2.23,7.16v-4.43h11.16v4.43a4.428,4.428,0,0,1-4.41,4.43h-2.34A4.428,4.428,0,0,1,1376.31,2649.35Zm5.58,33.92a9.41,9.41,0,1,1,9.38-9.41A9.406,9.406,0,0,1,1381.89,2683.27Zm2.25-10.78h-2.3l1.82-3.67a1.362,1.362,0,1,0-2.44-1.21l-2.8,5.64a1.375,1.375,0,0,0,1.22,1.97h2.3l-1.82,3.68a1.37,1.37,0,0,0,.62,1.83,1.424,1.424,0,0,0,.6.14,1.369,1.369,0,0,0,1.23-.76l2.79-5.65a0.774,0.774,0,0,0,.07-0.16A1.376,1.376,0,0,0,1384.14,2672.49Zm-50.05-35.69a1.37,1.37,0,0,0-1.36,1.37v37.85a1.364,1.364,0,0,0,1.36,1.37h20.43a1.364,1.364,0,0,0,1.36-1.37v-37.85a1.37,1.37,0,0,0-1.36-1.37h-20.43Zm19.06,37.86h-17.69v-6.56h17.69v6.56Zm0-9.3h-17.69v-6.09h17.69v6.09Zm0-8.83h-17.69v-6.9h17.69v6.9Zm0-9.63h-17.69v-7.36h17.69v7.36Zm7.1,8.83a1.366,1.366,0,0,0-1.37,1.37h0A1.365,1.365,0,1,0,1360.25,2655.73Z" transform="translate(-1327 -2625)"></path></svg> 