<?xml version="1.0" encoding="UTF-8"?> <svg xmlns="http://www.w3.org/2000/svg" width="71" height="70" viewBox="0 0 71 70"><defs><style> .cls-1 { fill: #f7861b; fill-rule: evenodd; } </style></defs><path id="Solar_Water_Heater" data-name="Solar Water Heater" class="cls-1" d="M929.285,2271.34a1.151,1.151,0,0,0,.827-0.33,1.113,1.113,0,0,0,.249-1.23,1.178,1.178,0,0,0-2.153,0,1.12,1.12,0,0,0,.249,1.23A1.15,1.15,0,0,0,929.285,2271.34Zm6.371,16.82a1.164,1.164,0,1,0,1.163-1.14A1.15,1.15,0,0,0,935.656,2288.16Zm-5.21-3.08a1.115,1.115,0,0,0-.335-0.8,1.169,1.169,0,0,0-1.274-.25,1.136,1.136,0,0,0-.716,1.05,1.124,1.124,0,0,0,.712,1.04,1.21,1.21,0,0,0,.455.09,1.162,1.162,0,0,0,.824-0.34A1.1,1.1,0,0,0,930.446,2285.08Zm-4.283-8.57a1.135,1.135,0,1,0,1.164,1.13A1.15,1.15,0,0,0,926.163,2276.51Zm54.893,4.24h0a3.531,3.531,0,0,1-1.044,2.5h-0.007a1.114,1.114,0,0,0-.016,1.61,1.2,1.2,0,0,0,.828.34h0.014a1.191,1.191,0,0,0,.82-0.35h0.007a5.749,5.749,0,0,0,0-8.2,3.525,3.525,0,0,1,0-5.01l0-.01a1.105,1.105,0,0,0,.015-1.6,1.162,1.162,0,0,0-.826-0.34h-0.016a1.177,1.177,0,0,0-.819.34l-0.008.01a5.755,5.755,0,0,0,0,8.2A3.531,3.531,0,0,1,981.056,2280.75Zm-17.76,0h0a3.527,3.527,0,0,1-1.048,2.5h-0.006a1.12,1.12,0,0,0-.015,1.61,1.166,1.166,0,0,0,.828.34h0.016a1.193,1.193,0,0,0,.82-0.35H963.9a5.749,5.749,0,0,0,0-8.2,3.524,3.524,0,0,1,0-5.01l0-.01a1.105,1.105,0,0,0,.015-1.6,1.162,1.162,0,0,0-.826-0.34h-0.016a1.155,1.155,0,0,0-.822.35h-0.006a5.756,5.756,0,0,0,0,8.2A3.531,3.531,0,0,1,963.3,2280.75Zm11.839,0h0a3.524,3.524,0,0,1-1.045,2.5h-0.007a1.12,1.12,0,0,0-.015,1.61,1.212,1.212,0,0,0,.829.34h0.013a1.255,1.255,0,0,0,.824-0.35h0a5.751,5.751,0,0,0,0-8.2,3.52,3.52,0,0,1,0-5.01l0-.01a1.108,1.108,0,0,0,.349-0.8,1.158,1.158,0,0,0-.337-0.81,1.194,1.194,0,0,0-.826-0.33H974.91a1.173,1.173,0,0,0-.818.34l-0.008.01a5.758,5.758,0,0,0,0,8.2A3.523,3.523,0,0,1,975.135,2280.75Zm-5.921,0h0a3.525,3.525,0,0,1-1.046,2.5h0a1.118,1.118,0,0,0-.016,1.61,1.212,1.212,0,0,0,.829.34h0.014a1.2,1.2,0,0,0,.823-0.35h0.006a5.749,5.749,0,0,0,0-8.2,3.524,3.524,0,0,1,0-5.01l0-.01a1.108,1.108,0,0,0,.015-1.6,1.163,1.163,0,0,0-.826-0.34h-0.016a1.178,1.178,0,0,0-.821.34l-0.008.01a5.758,5.758,0,0,0,0,8.2A3.523,3.523,0,0,1,969.214,2280.75Zm17.761,0h0a3.526,3.526,0,0,1-1.047,2.5h0a1.118,1.118,0,0,0-.016,1.61,1.214,1.214,0,0,0,.829.34h0.014a1.192,1.192,0,0,0,.822-0.35h0.007a5.749,5.749,0,0,0,0-8.2,3.524,3.524,0,0,1,0-5.01l0-.01a1.105,1.105,0,0,0,.015-1.6,1.162,1.162,0,0,0-.826-0.34h-0.016a1.174,1.174,0,0,0-.82.34l-0.008.01a5.756,5.756,0,0,0,0,8.2A3.531,3.531,0,0,1,986.975,2280.75Zm-50.156,3.87h0a7.059,7.059,0,0,0,6.547-4.31,6.876,6.876,0,0,0-1.532-7.59,7.153,7.153,0,0,0-7.73-1.52,6.967,6.967,0,0,0-4.369,6.44A7.052,7.052,0,0,0,936.819,2284.62Zm0-11.68a4.745,4.745,0,0,1,4.393,2.9,4.659,4.659,0,0,1-1.034,5.14,4.787,4.787,0,0,1-5.174,1.01,4.683,4.683,0,0,1-2.941-4.35A4.735,4.735,0,0,1,936.819,2272.94Zm20.556,7.81h0a3.521,3.521,0,0,1-1.047,2.5h-0.006a1.12,1.12,0,0,0-.015,1.61,1.214,1.214,0,0,0,.828.34h0.016a1.193,1.193,0,0,0,.82-0.35h0.007a5.748,5.748,0,0,0,0-8.2,3.524,3.524,0,0,1-.007-5.01l0.006-.01a1.09,1.09,0,0,0,.35-0.8,1.1,1.1,0,0,0-.335-0.8,1.368,1.368,0,0,0-.852-0.34,1.2,1.2,0,0,0-.81.34l-0.007.01a5.755,5.755,0,0,0,0,8.2A3.53,3.53,0,0,1,957.375,2280.75Zm-20.556-12.48a1.135,1.135,0,1,0-1.163-1.14A1.152,1.152,0,0,0,936.819,2268.27Zm7.535,3.07a1.153,1.153,0,0,0,.829-0.33,1.116,1.116,0,0,0,.248-1.23,1.178,1.178,0,0,0-2.153,0,1.116,1.116,0,0,0,.249,1.23A1.151,1.151,0,0,0,944.354,2271.34Zm3.121,7.44a1.135,1.135,0,1,0-1.162-1.14A1.152,1.152,0,0,0,947.475,2278.78Zm-3.948,5.5a1.1,1.1,0,0,0-.249,1.22,1.174,1.174,0,0,0,2.153.01,1.113,1.113,0,0,0-.249-1.23A1.183,1.183,0,0,0,943.527,2284.28Zm44.206,9.75a1.131,1.131,0,1,0,0,2.26,1.207,1.207,0,0,1,1.2,1.21,1.165,1.165,0,0,0,2.328,0A3.5,3.5,0,0,0,987.733,2294.03Zm0-4.67H954.579a1.13,1.13,0,1,0,0,2.26h27.329l-0.689.87a8.014,8.014,0,0,0,0,10.01l0.69,0.87h-36.8a5.875,5.875,0,1,1,0-11.75h4.736a1.13,1.13,0,1,0,0-2.26h-4.736a8.141,8.141,0,1,0,0,16.28h5.232L936.1,2333.73h-3.326l12.512-24.68a1.081,1.081,0,0,0,.064-0.84,1.176,1.176,0,0,0-2.151-.16l-13.34,26.32a1.1,1.1,0,0,0,.05,1.09,1.186,1.186,0,0,0,.993.54h41.446a1.159,1.159,0,0,0,1.045-.63l10.812-21.34v20.84a1.15,1.15,0,0,0,1.163,1.13H990.1a1.151,1.151,0,0,0,1.165-1.13v-12.85a1.165,1.165,0,0,0-2.328,0v11.71h-2.41v-28.09h1.212c0.187,0,.394-0.01.629-0.03l0.569-.05v11.79a1.165,1.165,0,0,0,2.328,0v-12.5l0.289-.14A8.114,8.114,0,0,0,987.733,2289.36Zm-49.041,44.37,14.242-28.09h3.327l-14.243,28.09h-3.326Zm11.839,0,12.512-24.68a1.081,1.081,0,0,0,.064-0.84,1.176,1.176,0,0,0-2.151-.16l-13.019,25.68h-3.326l14.243-28.09H968.1l-14.243,28.09h-3.326Zm5.921,0,14.243-28.09h3.326l-14.243,28.09h-3.326Zm27.75-24.82-12.584,24.82h-9.245l14.241-28.09h3.328l-12.4,24.45a1.108,1.108,0,0,0-.065.86,1.141,1.141,0,0,0,.581.66,1.18,1.18,0,0,0,1.571-.51l12.9-25.46H984.2v3.27Zm3.532-5.54h0a5.923,5.923,0,0,1-5.487-3.62,5.806,5.806,0,0,1,1.291-6.41,5.967,5.967,0,0,1,6.465-1.27,5.852,5.852,0,0,1,3.67,5.43A5.921,5.921,0,0,1,987.734,2303.37Zm-43.79-8.21a1.144,1.144,0,0,0,1.164,1.13h29.6a1.13,1.13,0,1,0,0-2.26h-29.6A1.151,1.151,0,0,0,943.944,2295.16Z" transform="translate(-925 -2266)"></path></svg> 