<?xml version="1.0" encoding="UTF-8"?> <svg xmlns="http://www.w3.org/2000/svg" width="70" height="70" viewBox="0 0 70 70"><defs><style> .cls-1 { fill: #f7861b; fill-rule: evenodd; } </style></defs><path id="Reduced_Costs" data-name="Reduced Costs" class="cls-1" d="M591.5,2625h-63a3.506,3.506,0,0,0-3.5,3.52v30.46a3.5,3.5,0,0,0,3.5,3.51h63a3.5,3.5,0,0,0,3.5-3.51v-30.46A3.506,3.506,0,0,0,591.5,2625Zm1.166,33.98a1.166,1.166,0,0,1-1.166,1.17h-63a1.166,1.166,0,0,1-1.167-1.17v-30.46a1.174,1.174,0,0,1,1.167-1.18h63a1.174,1.174,0,0,1,1.166,1.18v30.46Zm-3.5-23.43a4.679,4.679,0,0,1-4.667-4.69,1.166,1.166,0,0,0-1.167-1.17H536.667a1.166,1.166,0,0,0-1.167,1.17,4.689,4.689,0,0,1-4.667,4.69,1.166,1.166,0,0,0-1.166,1.17v14.06a1.172,1.172,0,0,0,1.166,1.17,4.679,4.679,0,0,1,4.667,4.69,1.172,1.172,0,0,0,1.167,1.17h46.666a1.172,1.172,0,0,0,1.167-1.17,4.679,4.679,0,0,1,4.667-4.69,1.172,1.172,0,0,0,1.166-1.17v-14.06A1.166,1.166,0,0,0,589.167,2635.55Zm-51.427,19.91a7.016,7.016,0,0,0-5.74-5.76v-11.96a7.026,7.026,0,0,0,5.74-5.76h14.537a14.1,14.1,0,0,0,0,23.44Zm10.593-11.71A11.667,11.667,0,1,1,560,2655.46,11.7,11.7,0,0,1,548.333,2643.75ZM588,2649.7a7.016,7.016,0,0,0-5.74,5.76H567.723a14.089,14.089,0,0,0,0-23.43H582.26a7.02,7.02,0,0,0,5.74,5.71v11.96Zm-28-11.79a2.34,2.34,0,0,1,2.333,2.35,1.167,1.167,0,1,0,2.334,0,4.691,4.691,0,0,0-3.5-4.53v-1.36a1.166,1.166,0,1,0-2.332,0v1.34a4.689,4.689,0,0,0,1.166,9.21,2.345,2.345,0,1,1-2.333,2.34,1.167,1.167,0,1,0-2.334,0,4.692,4.692,0,0,0,3.5,4.54v1.34a1.166,1.166,0,1,0,2.332,0v-1.34a4.69,4.69,0,0,0-1.166-9.2A2.345,2.345,0,0,1,560,2637.91Zm-13.417,26.93h-10.5a1.748,1.748,0,0,0-1.75,1.75v7.04a1.748,1.748,0,0,0,1.75,1.75h10.5a1.747,1.747,0,0,0,1.75-1.75v-7.04A1.747,1.747,0,0,0,546.583,2664.84Zm-0.583,8.2h-9.333v-5.86H546v5.86Zm19.25-8.2h-10.5a1.747,1.747,0,0,0-1.75,1.75v11.72a1.756,1.756,0,0,0,1.75,1.76h10.5a1.757,1.757,0,0,0,1.75-1.76v-11.72A1.748,1.748,0,0,0,565.25,2664.84Zm-0.583,12.89h-9.334v-10.55h9.334v10.55Zm22.027,4.68h-1.027v-15.82a1.748,1.748,0,0,0-1.75-1.75h-10.5a1.747,1.747,0,0,0-1.75,1.75v15.82h-1.038a1.76,1.76,0,0,0-1.3,2.92l8.039,9.08a1.742,1.742,0,0,0,2.613,0l8.015-9.08A1.76,1.76,0,0,0,586.694,2682.41Zm-8.028,9.95-6.731-7.6h0.315A1.757,1.757,0,0,0,574,2683v-15.82h9.333V2683a1.757,1.757,0,0,0,1.751,1.76H585.4Z" transform="translate(-525 -2625)"></path></svg> 