<?xml version="1.0" encoding="UTF-8"?> <svg xmlns="http://www.w3.org/2000/svg" width="70" height="69.844" viewBox="0 0 70 69.844"><defs><style> .cls-1 { fill: #f7861b; fill-rule: evenodd; } </style></defs><path id="Powerhouse" class="cls-1" d="M62.58,35.342c-0.012-.01-0.027-0.013-0.039-0.022a1.163,1.163,0,0,0-.236-0.134c-0.034-.015-0.064-0.037-0.1-0.049a1.159,1.159,0,0,0-.373-0.064h-3.5V29.251H59.5a1.165,1.165,0,0,0,1.167-1.164V24.148A4.6,4.6,0,0,0,61.833,21.1a3.2,3.2,0,0,1,1-2.295,8.029,8.029,0,0,0,2.4-7.167A8.15,8.15,0,0,0,58.14,4.855a8.233,8.233,0,0,0-6.4,2.01A8.135,8.135,0,0,0,51.589,18.9a2.988,2.988,0,0,1,.911,2.2,4.6,4.6,0,0,0,1.167,3.047v3.939a1.165,1.165,0,0,0,1.167,1.164H56v5.821H33.833a1.167,1.167,0,0,0-.825.341l-5.833,5.822a1.154,1.154,0,0,0-.331.823H26.833v4.657h2.333V43.223h24.5v24.45H45.5V70H68.833A1.165,1.165,0,0,0,70,68.837V42.058a1.165,1.165,0,0,0-.42-0.895Zm-4.247-8.42H56V24.594h2.333v2.329ZM59.5,21.1a2.31,2.31,0,0,1-.313,1.164H58.811l0.873-2.491A5.387,5.387,0,0,0,59.5,21.1Zm-6.318-3.9A5.827,5.827,0,0,1,57.87,7.168,5.885,5.885,0,0,1,62.921,12a5.735,5.735,0,0,1-1.707,5.123l-0.007.007a5.657,5.657,0,0,0-1.187,1.683l1.748-4.988a1.164,1.164,0,0,0,.066-0.384A2.826,2.826,0,0,0,57.441,11.1a0.5,0.5,0,0,1-.547,0A2.826,2.826,0,0,0,52.5,13.445a1.164,1.164,0,0,0,.066.384l1.726,4.924A5.058,5.058,0,0,0,53.183,17.2Zm1.964,5.063a2.3,2.3,0,0,1-.313-1.164,5.547,5.547,0,0,0-.138-1.2l0.828,2.361H55.147ZM54.853,13.3a0.5,0.5,0,0,1,.747-0.266,2.824,2.824,0,0,0,3.135,0,0.5,0.5,0,0,1,.746.266l-2.314,6.6ZM30.816,40.894l3.5-3.493H58.611l-4.2,3.493H30.816Zm36.85,26.779H56V42.6l1.458-1.213,4.375-3.639L67.667,42.6V67.673ZM58.333,0.143H56V2.472h2.333V0.143ZM50.567,4.717l-1.65-1.646-1.65,1.647,1.65,1.646Zm-3.9,7.069H44.333v2.329h2.333V11.786Zm3.9,9.4-1.65-1.647-1.65,1.647,1.65,1.647Zm13.2,0,1.65,1.646,1.65-1.647-1.65-1.646Zm3.9-9.4v2.329H70V11.786H67.667Zm-0.6-7.068-1.65-1.647-1.65,1.647,1.65,1.647ZM16.333,7.129H21a1.165,1.165,0,0,0,1.044-1.685L19.71,0.787a1.216,1.216,0,0,0-2.087,0L15.29,5.444A1.165,1.165,0,0,0,16.333,7.129Zm2.333-3.218L19.112,4.8H18.221Zm-12.6,9.311a1.167,1.167,0,0,0,.926.657,1.223,1.223,0,0,0,.128.007,1.169,1.169,0,0,0,.919-0.448l2.873-3.67a1.164,1.164,0,0,0-.688-1.858L5.108,6.878A1.184,1.184,0,0,0,3.957,7.3,1.161,1.161,0,0,0,3.823,8.52Zm1.845-3.4-0.549.7-0.428-.9ZM1.433,24.133l5.092,1.132a1.129,1.129,0,0,0,.253.029,1.165,1.165,0,0,0,1.132-1.446L6.782,19.329a1.168,1.168,0,0,0-1.891-.6L0.928,22.113A1.163,1.163,0,0,0,1.433,24.133ZM4.975,21.72L5.19,22.584l-0.972-.216Zm11.345,10.6a1.163,1.163,0,0,0-.267-1.963L11.79,28.462a1.166,1.166,0,0,0-1.64,1.116l0.234,5.2a1.168,1.168,0,0,0,1.907.847Zm-2.94-.6-0.77.631-0.045-.994Zm14.05,3.5a1.163,1.163,0,0,0,.619-1.058l-0.13-5.205a1.166,1.166,0,0,0-1.714-1l-4.121,2.186a1.163,1.163,0,0,0-.128,1.976l4.251,3.019A1.167,1.167,0,0,0,27.43,35.22Zm-2.584-3.9,0.787-.417,0.025,0.994Zm6.433-13.7a1.164,1.164,0,0,0-.717.879l-0.811,4.587a1.165,1.165,0,0,0,1.482,1.318l5-1.485a1.163,1.163,0,0,0,.362-2.05l-4.19-3.1A1.167,1.167,0,0,0,31.278,17.622Zm2.053,3.732-0.955.283,0.154-.877ZM28.9,12.712a1.167,1.167,0,0,0,.867.386,1.18,1.18,0,0,0,.208-0.018,1.166,1.166,0,0,0,.877-0.721l1.907-4.847a1.165,1.165,0,0,0-1.4-1.547L26.332,7.35a1.163,1.163,0,0,0-.556,1.9Zm0.835-3.884-0.364.925-0.6-.661ZM18.667,28.087a9.315,9.315,0,1,0-9.333-9.314A9.335,9.335,0,0,0,18.667,28.087Zm0-16.3a6.986,6.986,0,1,1-7,6.986A7,7,0,0,1,18.667,11.786Zm38.57,43.476a1.167,1.167,0,0,0,1.1.767h3.777l-4.524,3.762,1.494,1.79,7-5.821a1.164,1.164,0,0,0-.747-2.059H61.556l4.524-3.762-1.494-1.79-7,5.822A1.165,1.165,0,0,0,57.236,55.263Zm-44.4-6.218H1.167A1.165,1.165,0,0,0,0,50.209V61.852a1.165,1.165,0,0,0,1.167,1.164H5.833v4.657H3.5V70h7V67.673H8.167V63.016h4.667A1.165,1.165,0,0,0,14,61.852V50.209A1.165,1.165,0,0,0,12.833,49.044Zm-7,11.643h-3.5V57.194h3.5v3.493Zm0-5.822h-3.5V51.373h3.5v3.493Zm5.833,5.822h-3.5V57.194h3.5v3.493Zm0-5.822h-3.5V51.373h3.5v3.493Zm17.5-5.821H17.5a1.165,1.165,0,0,0-1.167,1.164V61.852A1.165,1.165,0,0,0,17.5,63.016h4.667v4.657H19.833V70h7V67.673H24.5V63.016h4.667a1.165,1.165,0,0,0,1.167-1.164V50.209A1.165,1.165,0,0,0,29.167,49.044Zm-7,11.643h-3.5V57.194h3.5v3.493Zm0-5.822h-3.5V51.373h3.5v3.493ZM28,60.687H24.5V57.194H28v3.493Zm0-5.822H24.5V51.373H28v3.493Zm12.833,8.15H45.5a1.165,1.165,0,0,0,1.167-1.164V50.209A1.165,1.165,0,0,0,45.5,49.044H33.833a1.165,1.165,0,0,0-1.167,1.164V61.852a1.165,1.165,0,0,0,1.167,1.164H38.5v4.657H36.167V70h7V67.673H40.833V63.016Zm0-11.643h3.5v3.493h-3.5V51.373Zm0,5.822h3.5v3.493h-3.5V57.194ZM38.5,60.687H35V57.194h3.5v3.493Zm0-5.822H35V51.373h3.5v3.493ZM19.833,35.073H17.5V37.4h2.333V35.073Zm0,4.657H17.5v2.329h2.333V39.73ZM17.5,46.716h2.333V44.387H17.5v2.329ZM20.58,35.26l0.8,2.188,2.192-.8-0.8-2.188Zm4.586,5.769-0.8-2.188-2.192.8,0.8,2.188Zm1.6,4.38-0.8-2.188-2.192.8,0.8,2.188Zm-12.2-10.947-0.8,2.188,2.191,0.8,0.8-2.188Zm-2.395,6.566,2.192,0.8,0.8-2.188-2.192-.8Zm0.6,5.169,0.8-2.188-2.191-.8-0.8,2.188Z" transform="translate(0 -0.156)"></path></svg> 