<?xml version="1.0" encoding="UTF-8"?> <svg xmlns="http://www.w3.org/2000/svg" width="70.344" height="69.69" viewBox="0 0 70.344 69.69"><defs><style> .cls-1 { fill: #f7861b; fill-rule: evenodd; } </style></defs><path id="Solar_Plants" data-name="Solar Plants" class="cls-1" d="M583.5,2309.46v-12.92l11.065-18.29a1.03,1.03,0,0,0-.891-1.56H557.927a1.039,1.039,0,0,0-.891.5l-20.444,33.8a1.029,1.029,0,0,0,.891,1.56H573.23a1.04,1.04,0,0,0,.891-0.5l0.964-1.6a0.342,0.342,0,0,0,.1.02v12.77H559.525a1.034,1.034,0,0,0-1.039,1.03v6.17h-4.579v-0.81a1.041,1.041,0,0,0-1.04-1.03h-2.525v-7.79a1.032,1.032,0,0,0-1.039-1.02h-2.5v-2.5a1.034,1.034,0,0,0-1.039-1.03H542.2a1.034,1.034,0,0,0-1.039,1.03v2.5H533.81v-2.5a1.035,1.035,0,0,0-1.04-1.03h-3.563a1.033,1.033,0,0,0-1.039,1.03v2.5h-2.507a1.032,1.032,0,0,0-1.039,1.02v14.11a1.034,1.034,0,0,0,1.039,1.03H549.3a1.034,1.034,0,0,0,1.039-1.03v-0.73h2.525a1.035,1.035,0,0,0,1.04-1.03v-0.66h5.618a1.034,1.034,0,0,0,1.039-1.03v-6.18h14.622v1.55h-3.7a1.035,1.035,0,0,0-1.04,1.03v2.5h-3.375a1.035,1.035,0,0,0-1.04,1.03v3.52a1.035,1.035,0,0,0,1.04,1.03h23.641a1.034,1.034,0,0,0,1.04-1.03v-3.52a1.034,1.034,0,0,0-1.04-1.03H587.34v-2.5a1.033,1.033,0,0,0-1.039-1.03h-3.692v-16.37A1.025,1.025,0,0,0,583.5,2309.46Zm-40.265,8.86h1.484v1.47h-1.484v-1.47Zm-12.989,0h1.485v1.47h-1.485v-1.47Zm18.017,15.58H526.7v-12.06h21.563v12.06Zm3.564-1.77h-1.485v-1.47h1.485v1.47Zm33.083-41.92h-9.686l2.844-4.7h9.684Zm-8.537,18.22v-0.1l5.048-8.35v8.45h-5.048Zm4.158,2.06v16.35h-3.267v-16.35h3.267Zm-3.8-6.76h-9.68l2.844-4.7h9.681Zm-12.106,0h-9.4l2.845-4.7h9.4Zm4.093-6.76h-9.4l2.844-4.7h9.4Zm-5.313-6.76,2.844-4.7h9.4l-2.844,4.7h-9.4Zm28.437-11.46-2.841,4.7h-9.687l2.844-4.7h9.684Zm-12.106,0-2.844,4.7h-9.4l2.844-4.7h9.4Zm-21.216,0h9.4l-2.844,4.7h-9.4Zm-4.091,6.76h9.4l-2.845,4.7h-9.4Zm-4.09,6.76h9.4l-2.844,4.7h-9.4Zm-4.088,6.76h9.4l-2.845,4.7h-9.4Zm-6.934,11.46,2.848-4.7h9.395l-2.844,4.7h-9.4Zm11.822,0,2.844-4.7h9.4l-2.844,4.7h-9.4Zm21.506,0h-9.686l2.845-4.7h9.68Zm17.034,21.94v1.47H568.114v-1.47h21.563Zm-4.413-3.53,0,1.47h-12.73v-1.47h12.733Zm-4.442-31.93h-9.681l2.844-4.7h9.684Zm-53.739-18.92a7.967,7.967,0,0,0,1.638,3.9l-1.213,1.2a1.037,1.037,0,0,0,1.473,1.46l1.212-1.2a8.221,8.221,0,0,0,3.943,1.62v1.69a1.039,1.039,0,0,0,2.078,0v-1.69a8.229,8.229,0,0,0,3.944-1.62l1.211,1.2a1.055,1.055,0,0,0,1.489.01,1.019,1.019,0,0,0-.016-1.47l-1.212-1.2a7.967,7.967,0,0,0,1.638-3.9h1.706a1.03,1.03,0,1,0,0-2.06h-1.706a8.04,8.04,0,0,0-1.638-3.91l1.212-1.2a1.019,1.019,0,0,0,.016-1.47,1.046,1.046,0,0,0-1.489.02l-1.211,1.2a8.132,8.132,0,0,0-3.944-1.62v-1.69a1.039,1.039,0,0,0-2.078,0v1.69a8.125,8.125,0,0,0-3.943,1.62l-1.212-1.2a1.034,1.034,0,0,0-1.473,1.45l1.213,1.2a8.04,8.04,0,0,0-1.638,3.91h-1.707a1.03,1.03,0,1,0,0,2.06h1.707Zm8.092-7.06a6.09,6.09,0,0,1,5.624,3.72,5.988,5.988,0,0,1-1.32,6.57,6.122,6.122,0,0,1-6.633,1.3A6.015,6.015,0,0,1,535.175,2270.99Zm-4.911,59.53v-3.68a1.04,1.04,0,0,0-2.079,0v3.68A1.04,1.04,0,0,0,530.264,2330.52Zm5.957-1.62h1.062l-0.783,2.23a1.024,1.024,0,0,0,.642,1.31,0.986,0.986,0,0,0,.34.06,1.042,1.042,0,0,0,.982-0.69l1.261-3.6a1.033,1.033,0,0,0-.982-1.37h-1.061l0.782-2.23a1.039,1.039,0,0,0-1.964-.68l-1.261,3.6A1.033,1.033,0,0,0,536.221,2328.9Z" transform="translate(-524.344 -2266.28)"></path></svg> 