<svg height="496pt" fill="#f7861b" viewBox="-32 0 496 496" width="496pt" xmlns="http://www.w3.org/2000/svg"><path d="m392 0h-352c-22.054688 0-40 17.945312-40 40v304c0 22.054688 17.945312 40 40 40h24v48c0 4.414062 3.574219 8 8 8h40v48c0 4.414062 3.574219 8 8 8h32c4.425781 0 8-3.585938 8-8v-48h32v48c0 4.414062 3.574219 8 8 8h32c4.425781 0 8-3.585938 8-8v-48h32v48c0 4.414062 3.574219 8 8 8h32c4.425781 0 8-3.585938 8-8v-48h40c4.425781 0 8-3.585938 8-8v-48h24c22.054688 0 40-17.945312 40-40v-304c0-22.054688-17.945312-40-40-40zm-248 480h-16v-40h16zm80 0h-16v-40h16zm80 0h-16v-40h16zm48-56h-272v-40h272zm64-80c0 13.230469-10.769531 24-24 24h-352c-13.230469 0-24-10.769531-24-24v-304c0-13.230469 10.769531-24 24-24h352c13.230469 0 24 10.769531 24 24zm0 0"/><path d="m256 224h-24v-40c0-3.601562-2.398438-6.753906-5.863281-7.710938-3.449219-.960937-7.152344.503907-8.992188 3.589844l-48 80c-1.488281 2.472656-1.519531 5.554688-.105469 8.058594 1.417969 2.503906 4.082032 4.0625 6.960938 4.0625h24v40c0 3.601562 2.398438 6.753906 5.863281 7.710938.703125.191406 1.425781.289062 2.136719.289062 2.761719 0 5.390625-1.433594 6.855469-3.878906l48-80c1.488281-2.472656 1.519531-5.554688.105469-8.058594-1.417969-2.503906-4.082032-4.0625-6.960938-4.0625zm-40 59.121094v-19.121094c0-4.414062-3.574219-8-8-8h-17.863281l25.863281-43.121094v19.121094c0 4.414062 3.574219 8 8 8h17.863281zm0 0"/><path d="m384 32h-336c-8.824219 0-16 7.175781-16 16v288c0 8.824219 7.175781 16 16 16h336c8.824219 0 16-7.175781 16-16v-288c0-8.824219-7.175781-16-16-16zm-336 304v-288h336l.007812 288zm0 0"/><path d="m104 64h-32c-4.425781 0-8 3.585938-8 8v80c0 4.414062 3.574219 8 8 8h32c4.425781 0 8-3.585938 8-8v-80c0-4.414062-3.574219-8-8-8zm-8 80h-16v-64h16zm0 0"/><path d="m136 160h32c4.425781 0 8-3.585938 8-8v-80c0-4.414062-3.574219-8-8-8h-32c-4.425781 0-8 3.585938-8 8v80c0 4.414062 3.574219 8 8 8zm8-80h16v64h-16zm0 0"/><path d="m296 64h-32c-4.425781 0-8 3.585938-8 8v80c0 4.414062 3.574219 8 8 8h32c4.425781 0 8-3.585938 8-8v-80c0-4.414062-3.574219-8-8-8zm-8 80h-16v-64h16zm0 0"/><path d="m360 64h-32c-4.425781 0-8 3.585938-8 8v80c0 4.414062 3.574219 8 8 8h32c4.425781 0 8-3.585938 8-8v-80c0-4.414062-3.574219-8-8-8zm-8 80h-16v-64h16zm0 0"/><path d="m200 160h32c4.425781 0 8-3.585938 8-8v-80c0-4.414062-3.574219-8-8-8h-32c-4.425781 0-8 3.585938-8 8v80c0 4.414062 3.574219 8 8 8zm8-80h16v64h-16zm0 0"/><path d="m288 240h16v16h-16zm0 0"/><path d="m320 240h16v16h-16zm0 0"/><path d="m352 240h16v16h-16zm0 0"/><path d="m64 240h16v16h-16zm0 0"/><path d="m96 240h16v16h-16zm0 0"/><path d="m128 240h16v16h-16zm0 0"/></svg>