<svg height="496pt" fill="#f7861b" viewBox="-32 0 496 496" width="496pt" xmlns="http://www.w3.org/2000/svg"><path d="m216 16v-16c-79.398438 0-144 64.601562-144 144h16c0-70.574219 57.425781-128 128-128zm0 0"/><path d="m104 144c0 19.769531 5.191406 38.328125 14.222656 54.464844l-35.878906 35.878906c-1.503906 1.496094-2.34375 3.535156-2.34375 5.65625v25.472656c-9.289062 3.3125-16 12.113282-16 22.527344 0 13.230469 10.769531 24 24 24s24-10.769531 24-24c0-10.414062-6.710938-19.214844-16-22.527344v-22.160156l31.257812-31.257812c12.496094 16.257812 29.300782 28.960937 48.742188 36.433593v28.199219l-21.71875 21.71875c-3.128906-1.503906-6.585938-2.40625-10.28125-2.40625-13.230469 0-24 10.769531-24 24s10.769531 24 24 24 24-10.769531 24-24c0-3.695312-.902344-7.152344-2.40625-10.28125l24.0625-24.0625c1.503906-1.496094 2.34375-3.527344 2.34375-5.65625v-26.65625c7.742188 1.695312 15.761719 2.65625 24 2.65625 61.761719 0 112-50.238281 112-112s-50.238281-112-112-112-112 50.238281-112 112zm-16 152c-4.40625 0-8-3.585938-8-8s3.59375-8 8-8 8 3.585938 8 8-3.59375 8-8 8zm56 32c-4.40625 0-8-3.585938-8-8s3.59375-8 8-8 8 3.585938 8 8-3.59375 8-8 8zm64-277.671875v85.671875h-31.816406c1.601562-44.558594 16.328125-77.0625 31.816406-85.671875zm0 101.671875v85.671875c-15.488281-8.609375-30.214844-41.113281-31.816406-85.671875zm16 85.671875v-85.671875h31.816406c-1.601562 44.558594-16.328125 77.0625-31.816406 85.671875zm0-101.671875v-85.671875c15.488281 8.609375 30.214844 41.113281 31.816406 85.671875zm-41.792969-81.742188c-12.558593 18.78125-20.863281 47.949219-22.007812 81.742188h-39.792969c3.113281-37.535156 27.90625-68.929688 61.800781-81.742188zm-61.800781 97.742188h39.792969c1.144531 33.792969 9.449219 62.960938 22.007812 81.742188-33.894531-12.8125-58.6875-44.207032-61.800781-81.742188zm129.386719 81.742188c12.558593-18.78125 20.863281-47.949219 22.007812-81.742188h39.792969c-3.113281 37.535156-27.90625 68.929688-61.800781 81.742188zm61.800781-97.742188h-39.792969c-1.144531-33.792969-9.449219-62.960938-22.007812-81.742188 33.894531 12.8125 58.6875 44.207032 61.800781 81.742188zm0 0"/><path d="m424 160h-48v16h40v224h-400v-224h72v-16h-80c-4.414062 0-8 3.585938-8 8v240c0 4.425781 3.585938 8 8 8h176v32h-40c-22.054688 0-40 17.945312-40 40 0 4.425781 3.585938 8 8 8h208c4.414062 0 8-3.574219 8-8 0-22.054688-17.945312-40-40-40h-40v-32h176c4.414062 0 8-3.574219 8-8v-240c0-4.414062-3.585938-8-8-8zm-113.367188 320h-189.265624c3.304687-9.3125 12.199218-16 22.632812-16h144c10.433594 0 19.328125 6.6875 22.632812 16zm-78.632812-32h-32v-32h32zm0 0"/><path d="m216 272c-4.414062 0-8 3.574219-8 8v41.472656c-9.289062 3.3125-16 12.113282-16 22.527344 0 13.230469 10.769531 24 24 24s24-10.769531 24-24c0-10.414062-6.710938-19.214844-16-22.527344v-33.695312c6.175781-.335938 12.207031-1.210938 18.160156-2.304688l24.246094 24.238282c-1.496094 3.136718-2.40625 6.59375-2.40625 10.289062 0 13.230469 10.769531 24 24 24s24-10.769531 24-24-10.769531-24-24-24c-3.695312 0-7.152344.910156-10.28125 2.40625l-17.503906-17.503906c26.679687-8.636719 49.96875-24.796875 67.320312-46.054688l8.464844 8.464844v22.160156c-9.289062 3.3125-16 12.113282-16 22.527344 0 13.230469 10.769531 24 24 24s24-10.769531 24-24c0-10.414062-6.710938-19.214844-16-22.527344v-25.472656c0-2.121094-.839844-4.160156-2.34375-5.65625l-12.542969-12.542969c14.472657-22.457031 22.886719-49.160156 22.886719-77.800781h-16c0 70.574219-57.425781 128-128 128zm0 80c-4.40625 0-8-3.585938-8-8s3.59375-8 8-8 8 3.585938 8 8-3.59375 8-8 8zm80-32c0 4.414062-3.59375 8-8 8s-8-3.585938-8-8 3.59375-8 8-8 8 3.585938 8 8zm48-24c-4.40625 0-8-3.585938-8-8s3.59375-8 8-8 8 3.585938 8 8-3.59375 8-8 8zm0 0"/></svg>