<svg id="OutlineExpand" enable-background="new 0 0 64 64" height="512" viewBox="0 0 64 64" width="512" fill="#f7861b" xmlns="http://www.w3.org/2000/svg"><path d="m57 25.59 1.315.893c.167.113.362.173.562.173.062 0 .126-.006.188-.018.26-.05.49-.201.639-.421l2.246-3.311c.311-.457.191-1.079-.266-1.389l-29.122-19.761c-.34-.23-.783-.23-1.123 0l-29.124 19.762c-.457.31-.576.932-.266 1.389l2.246 3.311c.148.22.379.371.639.421.262.05.531-.007.75-.155l1.316-.894v10.005c-.586.256-1.065.729-1.316 1.351-1.681 4.156-3.684 9.618-3.684 12.054 0 3.59 2.09 6.378 5 6.903v4.097h-5v2h60v-2h-5zm-51.611-1.323-1.123-1.657 27.734-18.819 27.734 18.819-1.123 1.656-26.049-17.676c-.17-.115-.366-.173-.562-.173s-.392.058-.562.173zm-1.389 24.733c0-1.625 1.289-5.745 3.537-11.304.115-.283.362-.313.463-.313s.348.03.463.313c2.248 5.559 3.537 9.679 3.537 11.304 0 2.897-1.683 5-4 5s-4-2.103-4-5zm5 6.903c2.91-.525 5-3.313 5-6.903 0-2.436-2.003-7.898-3.684-12.054-.251-.622-.73-1.095-1.316-1.351v-11.362l23-15.607 23 15.607v19.465l-.168-.252c-.371-.557-1.293-.557-1.664 0l-2 3c-.109.163-.168.357-.168.554v2h-2v-2c0-.197-.059-.391-.168-.555l-2-3c-.371-.557-1.293-.557-1.664 0l-2 3c-.109.164-.168.358-.168.555v2h-2v-2c0-.197-.059-.391-.168-.555l-2-3c-.371-.557-1.293-.557-1.664 0l-2 3c-.109.164-.168.358-.168.555v13h-6v-19c0-.553-.447-1-1-1h-11c-.553 0-1 .447-1 1v19h-7zm30 4.097h-2v-12.697l1-1.5 1 1.5zm2-9h2v2h-2zm0 4h2v5h-2zm6 5h-2v-12.697l1-1.5 1 1.5zm2-9h2v2h-2zm0 4h2v5h-2zm-22 5h-9v-18h9zm26 0v-12.697l1-1.5 1 1.5v12.697z"/><path d="m29 33h6c2.206 0 4-1.794 4-4v-6c0-2.206-1.794-4-4-4h-6c-2.206 0-4 1.794-4 4v6c0 2.206 1.794 4 4 4zm-2-4v-2h4v4h-2c-1.103 0-2-.897-2-2zm8 2h-2v-4h4v2c0 1.103-.897 2-2 2zm2-8v2h-4v-4h2c1.103 0 2 .897 2 2zm-8-2h2v4h-4v-2c0-1.103.897-2 2-2z"/><path d="m23 50h2v2h-2z"/></svg>